<?xml version="1.0" encoding="UTF-8"?>
<svg width="344px" height="171px" viewBox="0 0 344 171" version="1.1" xmlns="http://www.w3.org/2000/svg" xmlns:xlink="http://www.w3.org/1999/xlink">
    <!-- Generator: Sketch 51 (57462) - http://www.bohemiancoding.com/sketch -->
    <title>Artboard 3</title>
    <desc>Created with Sketch.</desc>
    <defs></defs>
    <g id="Artboard-3" stroke="none" stroke-width="1" fill="none" fill-rule="evenodd">
        <g id="Group" transform="translate(42.000000, 33.000000)">
            <g id="Group-2">
                <path d="M16.2599337,97.9185829 L16.2599337,102.256983 L0,102.256983 L0,77.9922108 L16.2599337,77.9922108 L16.2599337,82.3306108 L5.13650626,82.3306108 L5.13650626,87.9974356 L15.6306267,87.9974356 L15.6306267,92.016341 L5.13650626,92.016341 L5.13650626,97.9185829 L16.2599337,97.9185829 Z M21.1753321,102.256983 L21.1753321,83.7094821 L25.9716724,83.7094821 L25.9716724,86.6690108 L26.2778218,86.6690108 C26.7710624,84.8193054 28.7100085,83.406803 31.0911703,83.406803 C31.7715023,83.406803 32.6049089,83.4908806 33.0301164,83.6422201 L33.0301164,88.0983286 C32.6389255,87.9469891 31.4823612,87.7956496 30.6829712,87.7956496 C27.9786517,87.7956496 26.1247471,89.3763069 26.1247471,91.98271 L26.1247471,102.256983 L21.1753321,102.256983 Z M36.533826,102.256983 L36.533826,83.7094821 L41.483241,83.7094821 L41.483241,102.256983 L36.533826,102.256983 Z M39.0170376,81.1198945 C37.2311662,81.1198945 36.0916102,80.0941488 36.0916102,78.6480154 C36.0916102,77.1850666 37.2311662,76.1761364 39.0170376,76.1761364 C40.7859007,76.1761364 41.942465,77.1850666 41.942465,78.6480154 C41.942465,80.0941488 40.7859007,81.1198945 39.0170376,81.1198945 Z M54.800739,102.660555 C49.0349257,102.660555 45.5652327,99.0452217 45.5652327,92.9748248 C45.5652327,86.9716899 49.0859506,83.30591 54.800739,83.30591 C60.5155274,83.30591 64.0362453,86.9548744 64.0362453,92.9748248 C64.0362453,99.0452217 60.5665523,102.660555 54.800739,102.660555 Z M54.800739,98.6584651 C57.4370253,98.6584651 58.9507639,96.5733426 58.9507639,92.9748248 C58.9507639,89.4099379 57.420017,87.308 54.800739,87.308 C52.1644527,87.308 50.6507141,89.4099379 50.6507141,92.9748248 C50.6507141,96.5901581 52.1474444,98.6584651 54.800739,98.6584651 Z M68.0672121,102.256983 L68.0672121,83.7094821 L72.8635524,83.7094821 L72.8635524,86.6858263 L73.1697018,86.6858263 C74.037125,84.6007038 75.9420545,83.30591 78.7144072,83.30591 C82.8814404,83.30591 85.1265359,85.8282356 85.1265359,90.2675286 L85.1265359,102.256983 L80.1771209,102.256983 L80.1771209,91.4277984 C80.1771209,88.8718418 79.0715815,87.5266015 76.7244362,87.5266015 C74.4283159,87.5266015 73.0166271,89.1240744 73.0166271,91.5623224 L73.0166271,102.256983 L68.0672121,102.256983 Z M109.822586,102.879157 C102.713117,102.879157 98.3079675,98.0194759 98.3079675,90.1161891 C98.3079675,82.2297178 102.696109,77.3700371 109.822586,77.3700371 C115.639424,77.3700371 120.095598,81.1871565 120.469781,86.4672248 L115.469341,86.4672248 C114.9761,83.6758511 112.748013,81.8429612 109.822586,81.8429612 C105.961702,81.8429612 103.563532,85.0042759 103.563532,90.1161891 C103.563532,95.2281023 105.961702,98.4062325 109.839594,98.4062325 C112.78203,98.4062325 114.993109,96.6910511 115.486349,94.017386 L120.486789,94.017386 C120.061582,99.2638232 115.741474,102.879157 109.822586,102.879157 Z M133.038914,102.660555 C127.2731,102.660555 123.803408,99.0452217 123.803408,92.9748248 C123.803408,86.9716899 127.324125,83.30591 133.038914,83.30591 C138.753702,83.30591 142.27442,86.9548744 142.27442,92.9748248 C142.27442,99.0452217 138.804727,102.660555 133.038914,102.660555 Z M133.038914,98.6584651 C135.6752,98.6584651 137.188939,96.5733426 137.188939,92.9748248 C137.188939,89.4099379 135.658192,87.308 133.038914,87.308 C130.402627,87.308 128.888889,89.4099379 128.888889,92.9748248 C128.888889,96.5901581 130.385619,98.6584651 133.038914,98.6584651 Z M146.305387,102.256983 L146.305387,83.7094821 L151.101727,83.7094821 L151.101727,86.7362728 L151.407877,86.7362728 C152.17325,84.6175193 154.129204,83.30591 156.595408,83.30591 C159.231694,83.30591 161.034574,84.5838883 161.782939,86.7362728 L162.089088,86.7362728 C162.956512,84.6679658 165.116565,83.30591 167.735844,83.30591 C171.477669,83.30591 173.807806,85.7105271 173.807806,89.5276465 L173.807806,102.256983 L168.858391,102.256983 L168.858391,90.8224403 C168.858391,88.6196093 167.820885,87.5266015 165.728864,87.5266015 C163.721885,87.5266015 162.429254,88.9391038 162.429254,90.9065178 L162.429254,102.256983 L157.666931,102.256983 L157.666931,90.6206542 C157.666931,88.6532403 156.510366,87.5266015 154.57142,87.5266015 C152.632474,87.5266015 151.254802,89.0231814 151.254802,91.0914883 L151.254802,102.256983 L146.305387,102.256983 Z M189.438433,83.406803 C194.183748,83.406803 197.092167,86.9716899 197.092167,92.9748248 C197.092167,98.9611442 194.217765,102.542846 189.523474,102.542846 C186.836163,102.542846 184.778159,101.382577 183.859711,99.4151628 L183.553561,99.4151628 L183.553561,108.411457 L178.604147,108.411457 L178.604147,83.7094821 L183.400487,83.7094821 L183.400487,86.7530883 L183.706636,86.7530883 C184.727134,84.6679658 186.853171,83.406803 189.438433,83.406803 Z M187.754611,98.456679 C190.424914,98.456679 192.006686,96.4051876 192.006686,92.9748248 C192.006686,89.578093 190.407906,87.509786 187.77162,87.509786 C185.135333,87.509786 183.502537,89.5949085 183.502537,92.9916403 C183.502537,96.3883721 185.135333,98.456679 187.754611,98.456679 Z M207.892437,98.8602511 C210.188558,98.8602511 211.923404,97.4141178 211.923404,95.5307814 L211.923404,94.1687255 L208.130553,94.4041426 C206.004516,94.5554821 204.96701,95.3121798 204.96701,96.6406046 C204.96701,98.0194759 206.174599,98.8602511 207.892437,98.8602511 Z M206.25964,102.542846 C202.653881,102.542846 200.119645,100.356831 200.119645,96.9600992 C200.119645,93.5969984 202.721914,91.6464 207.382188,91.3773519 L211.923404,91.1083038 L211.923404,89.5949085 C211.923404,88.0478821 210.800856,87.1734759 208.75986,87.1734759 C206.973989,87.1734759 205.783408,87.7788341 205.375209,88.8886573 L200.816985,88.8886573 C201.140143,85.4582945 204.320694,83.30591 209.031993,83.30591 C213.998416,83.30591 216.804786,85.6264496 216.804786,89.5949085 L216.804786,102.256983 L212.008446,102.256983 L212.008446,99.8355504 L211.702296,99.8355504 C210.732823,101.533916 208.691827,102.542846 206.25964,102.542846 Z M221.669159,102.256983 L221.669159,83.7094821 L226.4655,83.7094821 L226.4655,86.6858263 L226.771649,86.6858263 C227.639072,84.6007038 229.544002,83.30591 232.316354,83.30591 C236.483388,83.30591 238.728483,85.8282356 238.728483,90.2675286 L238.728483,102.256983 L233.779068,102.256983 L233.779068,91.4277984 C233.779068,88.8718418 232.673529,87.5266015 230.326383,87.5266015 C228.030263,87.5266015 226.618574,89.1240744 226.618574,91.5623224 L226.618574,102.256983 L221.669159,102.256983 Z M245.344711,109 C245.15762,109 243.66089,108.983184 243.45679,108.949553 L243.45679,105.014726 C243.626873,105.048357 244.375238,105.048357 244.579338,105.048357 C246.433242,105.048357 247.487757,104.459814 247.895956,103.047312 L248.066039,102.374691 L241.483827,83.7094821 L246.943491,83.7094821 L250.889417,97.7672434 L251.195566,97.7672434 L255.141491,83.7094821 L260.380048,83.7094821 L253.916894,102.542846 C252.318114,107.31845 250.021993,109 245.344711,109 Z" id="Erion-Company" fill="#000000"></path>
                <path d="M207.718052,14.3546092 L207.718052,52 L236.266506,52 L258.486223,40.6031561 L258.486223,2.5 L231.832704,2.5 C230.602276,2.5 229.390745,2.80272356 228.304929,3.38148027 L207.718052,14.3546092 Z" id="Rectangle" stroke="#000000" stroke-width="5"></path>
            </g>
        </g>
    </g>
</svg>